<svg xmlns="http://www.w3.org/2000/svg" width="64" height="64" viewBox="0 0 64 64"><g transform="translate(0 -988.362)"><g transform="translate(501.775 793.011)"><path fill="#bcd5e2" stroke="#4b31aa" stroke-linecap="round" stroke-linejoin="round" d="m -448.5918,-747.70898 c 0.75737,0 1.36719,-0.60724 1.36719,-1.36133 l 0,-27.64063 c 0,-0.75409 -0.60982,-1.36133 -1.36719,-1.36133 l -42.43359,0 c -0.75737,0 -1.36719,0.60724 -1.36719,1.36133 l 0,27.64063 c 0,0.18852 0.0384,0.36828 0.10742,0.53125 0.0345,0.0815 0.076,0.15807 0.125,0.23047 0.24508,0.36277 0.6608,0.59961 1.13477,0.59961 z" transform="translate(0 988.362)"/><path fill="#79a1e8" d="m -455.15039,-778.07227 -23.91797,24.49219 -5.83984,5.8711 36.3164,0 c 0.75737,0 1.36719,-0.60724 1.36719,-1.36133 l 0,-27.64063 c 0,-0.75409 -0.60982,-1.36133 -1.36719,-1.36133 l -6.55859,0 z" transform="translate(0 988.362)"/><path fill="none" stroke="#4b31aa" stroke-linecap="round" stroke-linejoin="round" d="m -448.5918,-747.70898 c 0.75737,0 1.36719,-0.60724 1.36719,-1.36133 l 0,-27.64063 c 0,-0.75409 -0.60982,-1.36133 -1.36719,-1.36133 l -42.43359,0 c -0.75737,0 -1.36719,0.60724 -1.36719,1.36133 l 0,27.64063 c 0,0.18852 0.0384,0.36828 0.10742,0.53125 0.0345,0.0815 0.076,0.15807 0.125,0.23047 0.24508,0.36277 0.6608,0.59961 1.13477,0.59961 z" transform="translate(0 988.362)"/><path fill="#fff" stroke="#4b31aa" stroke-linecap="round" stroke-linejoin="round" d="m -449.625,-750.36914 0,-25.28906 -40.36523,0 0,25.28906 z" transform="translate(0 988.362)"/><path fill="#cfddf7" d="m -457.50781,-775.6582 -21.56055,22.07812 -3.19336,3.21094 32.63672,0 0,-25.28906 -7.88281,0 z" transform="translate(0 988.362)"/><path fill="none" stroke="#4b31aa" stroke-linecap="round" stroke-linejoin="round" d="m -449.625,-750.36914 0,-25.28906 -40.36523,0 0,25.28906 z" transform="translate(0 988.362)"/><path fill="none" stroke="#4b31aa" stroke-linecap="round" d="M-496.71965 223.42518l0 5.15972M-496.71965 230.11053l0 1.77892"/><circle cx="-457.224" cy="249.427" r="1.499" fill="#f9d015" stroke="#4b31aa" stroke-linecap="round" stroke-linejoin="round"/><path fill="none" stroke="#4b31aa" stroke-linecap="round" d="M-474.29839 254.98869l6.27439.0001M-466.39326 254.98869l2.61203.0001M-464.22304 252.95053l-9.21997-.0001M-475.10306 252.95053l-3.23025-.0001"/><circle cx="-441.653" cy="231.547" r="1.499" fill="#f9d015" stroke="#4b31aa" stroke-linecap="round" stroke-linejoin="round"/><path fill="none" stroke="#4b31aa" stroke-linecap="round" d="M-474.29086 198.62693l0 5.15971M-474.29086 205.31227l0 1.77888M-472.2526 207.09111l0-5.15971M-472.2526 200.40577l0-1.77888M-441.34466 213.65409l0 5.1597M-441.34466 220.33939l0 1.7789M-488.23569 249.3083l1.8471-1.84675M-492.55952 253.63203l1.8471-1.84675M-490.71259 249.3084l-1.84672-1.84695M-486.3888 253.63214l-1.84672-1.84696M-457.90472 201.1441l1.8471-1.84675M-462.22855 205.46783l1.8471-1.84675M-460.38162 201.1442l-1.84672-1.84695M-456.05783 205.46794l-1.84672-1.84696"/><path fill="none" stroke="#4b31aa" stroke-linecap="round" stroke-linejoin="round" d="m -448.54545,209.60114 c -1.10776,-0.0163 -2.01902,0.86875 -2.03531,1.97683 -0.0164,1.10798 0.86842,2.01951 1.97618,2.03584 1.10776,0.0163 2.01902,-0.86875 2.03531,-1.97673 0.0164,-1.10808 -0.86842,-2.01961 -1.97618,-2.03594 z m -1.58489,3.37632 -5.2201,3.76249 z m -6.9654,2.86948 c -1.10776,-0.0163 -2.01901,0.86864 -2.03531,1.97672 -0.0164,1.10818 0.86842,2.01962 1.97618,2.03594 1.10776,0.0163 2.01902,-0.86864 2.03532,-1.97682 0.0164,-1.10808 -0.86843,-2.01952 -1.97619,-2.03584 z m -1.93463,2.91311 -4.85371,4.87911 z m -6.62235,3.91445 c -1.10776,-0.0163 -2.01902,0.86864 -2.03532,1.97682 -0.0164,1.10808 0.86843,2.01952 1.97618,2.03584 1.10776,0.0163 2.01902,-0.86874 2.03532,-1.97672 0.0164,-1.10818 -0.86843,-2.01962 -1.97618,-2.03594 z m -1.88741,3.14663 -4.70925,2.97173 z m -6.64684,2.01018 c -1.10775,-0.0164 -2.01902,0.86874 -2.03531,1.97682 -0.0164,1.10798 0.86842,2.01952 1.97618,2.03584 1.10776,0.0163 2.01902,-0.86874 2.03531,-1.97672 0.0164,-1.10808 -0.86842,-2.01972 -1.97618,-2.03594 z m -1.98951,2.68888 -4.50389,1.77183 z m -6.51382,0.49757 c -1.10776,-0.0163 -2.01902,0.86865 -2.03531,1.97683 -0.0164,1.10808 0.86842,2.01951 1.97618,2.03584 1.10702,0.0163 2.01715,-0.86948 2.03344,-1.97676 0.0164,-1.10738 -0.8673,-2.0186 -1.97431,-2.03591 z m -1.83013,3.3352 -5.13194,3.20855 z"/><path fill="none" stroke="#4b31aa" stroke-linecap="round" d="M-442.35416 205.8046l-4.56435 4.43178M-444.53775 205.13711l2.82812.0417-.0417 2.82812M-495.32081 201.39839l6.27439.0001M-487.41568 201.39839l2.61203.0001M-485.24546 199.36023l-9.21997-.0001M-496.12548 199.36023l-3.23025-.0001"/><path fill="#bcd5e2" stroke="#4b31aa" stroke-linecap="round" stroke-linejoin="round" d="m -443.20568,244.04995 -53.37132,-0.0157 c -0.9901,-2.2e-4 -2.81847,-1.53368 -2.81847,-1.53368 l 0,-1.81321 59.17409,0 0,1.81321 c 0,0 -1.94199,1.52155 -2.9843,1.5493 z"/><path fill="#79a1e8" d="m -484.94141,-747.67578 -3.33203,3.34961 45.06836,0.0137 c 1.04231,-0.0277 2.98438,-1.54883 2.98438,-1.54883 l 0,-1.81445 -44.72071,0 z" transform="translate(0 988.362)"/><path fill="none" stroke="#4b31aa" stroke-linecap="round" stroke-linejoin="round" d="m -473.65155,241.2793 c -0.29729,0 -0.809,-0.52186 -0.809,-0.52186 l 9.30433,0 c 0,0 -0.26133,0.50771 -0.5582,0.52186 z"/><path fill="#4b31aa" stroke="#4b31aa" stroke-linecap="round" stroke-linejoin="round" d="m -469.68603,211.46859 a 0.15376383,0.15299265 0 0 1 -0.15376,0.1529 0.15376383,0.15299265 0 0 1 -0.15377,-0.1529 0.15376383,0.15299265 0 0 1 0.15377,-0.15302 0.15376383,0.15299265 0 0 1 0.15376,0.15302 z"/><circle cx="-497.543" cy="214.524" r="1.499" fill="#f9d015" stroke="#4b31aa" stroke-linecap="round" stroke-linejoin="round"/><path fill="none" stroke="#4b31aa" stroke-linecap="round" d="M-447.95209 247.61061l0 5.15971M-447.95209 254.29595l0 1.77888M-445.91383 256.07481l0-5.15971M-445.91383 249.38947l0-1.77888"/><path fill="#f9d015" stroke="#4b31aa" stroke-linecap="round" stroke-linejoin="round" d="m -482.6903,231.01776 c -1.10776,-0.0163 -2.01902,0.86865 -2.03531,1.97683 -0.0164,1.10808 0.86842,2.01951 1.97618,2.03584 1.10702,0.0163 2.01715,-0.86948 2.03344,-1.97676 0.0164,-1.10738 -0.8673,-2.0186 -1.97431,-2.03591 z"/><path fill="#bcd5e2" stroke="#4b31aa" stroke-linecap="round" stroke-linejoin="round" d="M-474.18697 227.83131c-1.10775-.0164-2.01902.86874-2.03531 1.97682-.0164 1.10798.86842 2.01952 1.97618 2.03584 1.10776.0163 2.01902-.86874 2.03531-1.97672.0164-1.10808-.86842-2.01972-1.97618-2.03594zM-465.65272 222.6745c-1.10776-.0163-2.01902.86864-2.03532 1.97682-.0164 1.10808.86843 2.01952 1.97618 2.03584 1.10776.0163 2.01902-.86874 2.03532-1.97672.0164-1.10818-.86843-2.01962-1.97618-2.03594z"/><path fill="#f7931e" stroke="#4b31aa" stroke-linecap="round" stroke-linejoin="round" d="m -457.09574,215.84694 c -1.10776,-0.0163 -2.01901,0.86864 -2.03531,1.97672 -0.0164,1.10818 0.86842,2.01962 1.97618,2.03594 1.10776,0.0163 2.01902,-0.86864 2.03532,-1.97682 0.0164,-1.10808 -0.86843,-2.01952 -1.97619,-2.03584 z"/><path fill="#bcd5e2" stroke="#4b31aa" stroke-linecap="round" stroke-linejoin="round" d="m -448.54545,209.60114 c -1.10776,-0.0163 -2.01902,0.86875 -2.03531,1.97683 -0.0164,1.10798 0.86842,2.01951 1.97618,2.03584 1.10776,0.0163 2.01902,-0.86875 2.03531,-1.97673 0.0164,-1.10808 -0.86842,-2.01961 -1.97618,-2.03594 z"/><path fill="none" stroke="#4b31aa" stroke-linecap="round" stroke-linejoin="round" d="m -443.20568,244.04995 -53.37132,-0.0157 c -0.9901,-2.2e-4 -2.81847,-1.53368 -2.81847,-1.53368 l 0,-1.81321 59.17409,0 0,1.81321 c 0,0 -1.94199,1.52155 -2.9843,1.5493 z"/></g></g></svg>