<svg xmlns="http://www.w3.org/2000/svg" width="116" height="181" fill-rule="evenodd" clip-rule="evenodd" image-rendering="optimizeQuality" shape-rendering="geometricPrecision" text-rendering="geometricPrecision" viewBox="0 0 9853 15316"><polygon fill="#f0ba7d" points="3994 6108 3760 7285 2975 7555 3439 14884 6426 14867 6566 7417 6065 7259 5809 6058"/><path fill="#83cf8f" d="M2797 9600c1307,634 2651,767 4066,36l-48 5470c-610,137 -1245,210 -1896,210 -750,0 -1477,-96 -2170,-276l48 -5440z"/><path fill="#e5e8ed" d="M6317 7349l2276 621c591,182 1118,531 1135,1158l125 4637c-519,362 -1079,669 -1673,912l-145 -2564 -399 2766c-854,283 -1768,437 -2717,437 -25,0 -50,-1 -74,-1l-1 -2351 1473 -5615z"/><polygon fill="#f2f2f2" points="6295 7333 6595 7454 7618 8990 6419 8971 7162 9369 4844 12964"/><path fill="#f2f2f2" d="M3653 7325l-2287 581c-594,172 -1127,512 -1155,1138l-211 4731c514,358 1069,661 1657,902l195 -2619 356 2822c830,275 1716,427 2637,435l-1 -2351 -1191 -5639z"/><polygon fill="#ecf0f1" points="3675 7310 3317 7447 2323 8943 3523 8945 2772 9330 4844 12964"/><path fill="#fed298" d="M2446 3284c-38,386 39,1243 507,1210 0,0 674,1964 1971,2186 1120,-205 1801,-1983 1852,-2152 155,53 586,-665 255,-1253 -94,-168 -363,-32 -363,-32l-21 -491c-1769,172 -2873,-1539 -2873,-1539 -674,734 -837,1152 -909,2065 0,0 -127,-79 -267,-82 -42,-1 -97,36 -152,88z"/><path fill="#596366" d="M3760 7285l229 -1151c-664,-654 -1010,-1640 -1010,-1640 -453,51 -634,-1196 -330,-1240 139,-20 232,24 232,24 69,-964 255,-1257 893,-2065 0,0 1116,1876 2884,1705l25 404c84,-82 237,-159 364,50 207,341 -64,1115 -315,1163 -35,119 -315,1000 -906,1603l239 1121c663,215 1303,381 1945,552 -326,-1989 -513,-4141 -903,-5978 -374,-1762 -2417,-2255 -3592,-1473 0,0 -1013,409 -1198,1763 -185,1354 -114,1484 -114,1484l-327 4169c606,-153 1306,-292 1884,-491z"/><path fill="#fefefe" d="M8035 12180c-336,-58 -562,-378 -504,-714 58,-337 378,-562 715,-504 336,58 562,378 504,714 -58,337 -378,562 -715,504z"/><path fill="#5d718f" d="M8042 12145c-317,-55 -530,-356 -475,-673 55,-317 356,-529 673,-475 317,55 529,356 474,673 -54,317 -355,530 -672,475z"/><path fill="#ebecec" d="M8086 11889c-175,-31 -293,-198 -263,-373 30,-175 197,-293 372,-262 176,30 293,197 263,372 -30,175 -197,293 -372,263z"/><polygon fill="#fefefe" points="8124 11288 8265 11313 8341 10872 8200 10847"/><path fill="#8597b1" fill-rule="nonzero" d="M3382 12303l265 -53c113,-22 206,-89 266,-178 59,-89 85,-200 63,-313l-312 -1572c-118,-593 -582,-896 -1112,-963 -203,-26 -416,-16 -623,25 -206,41 -406,113 -584,215 -464,263 -776,720 -658,1314l312 1572c22,112 89,206 178,265l0 0c89,60 201,85 313,63l265 -53 -21 -109 -265 53c-83,16 -165,-3 -230,-46l0 0c-65,-44 -114,-112 -131,-195l-312 -1572c-107,-539 179,-955 603,-1196 168,-95 357,-164 552,-203 195,-38 396,-47 587,-23 485,62 910,337 1017,875l312 1572c16,82 -3,164 -47,229 -43,66 -112,114 -194,131l-266 52 22 110z"/><path fill="#384a66" fill-rule="nonzero" d="M3748 10420l-48 -240c-121,-612 -599,-924 -1144,-993 -207,-26 -424,-16 -634,25 -210,42 -414,116 -596,219 -476,272 -797,741 -675,1354l47 240 182 -36 -47 -240c-104,-521 174,-923 585,-1157 164,-93 349,-160 540,-198 191,-38 388,-47 576,-23 470,59 881,325 984,845l48 240 182 -36z"/><path fill="#384a66" d="M1545 12691l142-28c36 40 91 61 147 49 84-16 139-98 123-183-17-84-99-139-184-122-56 11-99 51-117 101l-142 29 31 154zM3495 12304l-142 28c-18 51-61 91-117 102-84 17-166-38-183-122-17-85 38-167 122-184 57-11 112 10 147 50l142-28 31 154z"/><path fill="#8597b1" d="M2008 9198l-54-272-107 21-108 21 55 276c41-12 82-23 124-31 30-6 60-11 90-15zM1776 12540c26-6 42-30 37-56-5-25-30-42-55-37-26 5-42 30-37 55 5 26 30 43 55 38zM3179 12260c26-5 42-29 37-55-5-25-30-42-55-37-26 5-42 30-37 55 5 26 30 43 55 37z"/><path fill="#fefefe" d="M8069 11886c-166,-29 -277,-187 -249,-353 29,-165 186,-276 352,-248 166,29 277,186 249,352 -29,166 -187,277 -352,249z"/><path fill="#384a66" fill-rule="nonzero" d="M3321 7453c-5 0-1679 14-1396 1479l-156 30c-319-1652 1545-1667 1550-1667l2 158zM6663 7302c273 8 801 82 1208 577 398 484 676 1372 468 3002l-157-20c202-1577-59-2426-434-2882-365-445-842-512-1089-519l4-158z"/></svg>