<svg xmlns="http://www.w3.org/2000/svg" data-name="Layer 1" viewBox="0 0 512 512"><path fill="#f9f7f8" d="M64.44049,501.999V387.7149a80,80,0,0,1,43.484-71.17993L187.946,275.48316a80,80,0,0,1,36.516-8.82007h63.076a80,80,0,0,1,36.516,8.82007L404.0755,316.535a80,80,0,0,1,43.484,71.17993V501.999a10,10,0,0,1-10,10H74.44049A10,10,0,0,1,64.44049,501.999Z"/><path fill="#a4aed3" d="M187.946,275.48316a80,80,0,0,1,36.516-8.82007h63.076a80,80,0,0,1,36.516,8.82007l-68.054,231Z"/><rect width="101.722" height="80.945" x="205.139" y="220.138" fill="#f9beac"/><path fill="#e58a7b" d="M205.13892,248.26318a88.26651,88.26651,0,0,0,14.66333,13.28272h.00012a63.703,63.703,0,0,0,37.18933,11.98193h12.83838a63.703,63.703,0,0,0,37.03113-11.87256V220.13818H205.13892Z"/><path fill="#eaeaea" d="M128.12012 511.999a3.49985 3.49985 0 0 1-3.5-3.5V435.3252a3.5 3.5 0 0 1 7 0V508.499A3.49986 3.49986 0 0 1 128.12012 511.999zM383.87988 511.999a3.49986 3.49986 0 0 1-3.5-3.5V435.3252a3.5 3.5 0 0 1 7 0V508.499A3.49985 3.49985 0 0 1 383.87988 511.999z"/><polygon fill="#f96263" points="232.221 466.499 242 316.451 271 316.451 279.779 466.499 256 508.499 232.221 466.499"/><path fill="#d34342" d="M281.45584,323.499l-19.018,19.018a9.10443,9.10443,0,0,1-12.87562,0l-19.018-19.018L256,301.08348Z"/><path fill="#596381" d="M306.86119 266.66309L256 301.08348l23.68874 25.43478a15 15 0 0 0 23.62717-2.16307l14.57614-44.851zM205.13881 266.66309L256 301.08348l-23.68874 25.43478a15 15 0 0 1-23.62717-2.16307l-14.57613-44.851z"/><path fill="#f9beac" d="M336.78336,171.91508v1.6491a88.32532,88.32532,0,0,1-36.76349,71.7129l-.00033.00023a63.70548,63.70548,0,0,1-37.18944,11.98186H249.99171a63.70547,63.70547,0,0,1-37.18938-11.98181l-.00005,0a88.32531,88.32531,0,0,1-36.76359-71.71268v-19.6325l7-9.55494-7-19.56944,39.18964-46.93307,121.555,27.4972-7,23.12713,7,25.43312Z"/><path fill="#e58a7b" d="M256.41211 220.625a36.91933 36.91933 0 0 1-15.71973-3.53711 3.49987 3.49987 0 0 1 2.998-6.32519 29.69546 29.69546 0 0 0 25.44189-.00049 3.5001 3.5001 0 1 1 2.99707 6.32617A36.955 36.955 0 0 1 256.523 220.625zM269.11546 175.3884v6.19312a12.70119 12.70119 0 0 1-12.70119 12.70119h-.00649a12.70119 12.70119 0 0 1-12.70119-12.70119V175.3884a2 2 0 0 1 2-2h21.40887A2 2 0 0 1 269.11546 175.3884z"/><path fill="#eaeaea" d="M275.79958,511.999,353.5655,356.6544a5,5,0,0,0-.93462-5.77556l-15.14243-15.14243a5,5,0,0,1,1.4937-8.09963l17.86455-7.992a5,5,0,0,0,2.10853-7.35237L339.57577,283.446l-32.71458-16.78289L255.26389,511.999Z"/><path fill="#eaeaea" d="M235.90334,511.999,158.44657,356.65875a5,5,0,0,1,.92913-5.78649l15.13585-15.13585a5,5,0,0,0-1.4937-8.09963l-17.41141-7.78931a5,5,0,0,1-1.877-7.66931l25.55549-32.25176,25.85393-13.26331L256.73611,511.999Z"/><path fill="#38424f" d="M192.012,51.835A15.97327,15.97327,0,0,0,176.0387,67.80823v86.1239h8.094a5.906,5.906,0,0,0,5.906-5.906V123.39094a12.51536,12.51536,0,0,1,4.882-9.9148,52.32335,52.32335,0,0,0,20.01116-35.10993l3.24-26.53125Z"/><path fill="#596381" d="M364.61084,296.42676c10.0127,11.27881,22.81348,30.12109,26.937,55.83642a106.75444,106.75444,0,0,1,.26465,31.82666,3.5,3.5,0,1,0,6.93164.97657,113.77569,113.77569,0,0,0-.28418-33.91162,115.57846,115.57846,0,0,0-19.217-47.35938l-14.79-7.5874C364.50757,296.28027,364.5498,296.35791,364.61084,296.42676Z"/><circle cx="396.451" cy="399.86" r="22.282" fill="#343c4a"/><path fill="#596381" d="M119.54,372.31445q.16186,0,.32617-.01465a3.50094,3.50094,0,0,0,3.16309-3.80761,103.59847,103.59847,0,0,1,18.30139-69.09473L129.25,305.59473a110.51284,110.51284,0,0,0-13.19141,63.542A3.50081,3.50081,0,0,0,119.54,372.31445Z"/><path fill="#343c4a" d="M107.502 432.64307a3.4999 3.4999 0 0 1-3.43945-2.85205l-6.05176-32.12159A27.91119 27.91119 0 1 1 152.86816 387.335l6.05176 32.12109a3.50048 3.50048 0 0 1-2.7915 4.08741l-10.77881 2.03076a3.5 3.5 0 0 1-1.2959-6.87891l7.33936-1.38281-5.40381-28.68164a20.91128 20.91128 0 0 0-41.09961 7.74268l5.40381 28.68212 7.33935-1.38281a3.5 3.5 0 0 1 1.2959 6.87891l-10.77881 2.03076A3.4979 3.4979 0 0 1 107.502 432.64307zM336.78345 49.43213A45.93311 45.93311 0 0 0 290.85034 3.499H172.87886a5.93308 5.93308 0 0 0-5.65767 7.71973l8.848 28.01849a84.79706 84.79706 0 0 0 80.861 59.26178h32.78649a47.36013 47.36013 0 0 1 27.98492 9.1534 12.48089 12.48089 0 0 1 5.07112 10.0765v30.29721a5.906 5.906 0 0 0 5.906 5.906h8.094v-25.4458l.01074.01269z"/><path fill="#e58a7b" d="M336.78342,167.56693h0V126.51725h5.7301A17.65977,17.65977,0,0,1,360.17326,144.177v0A23.38984,23.38984,0,0,1,336.78342,167.56693Z"/><path fill="#e58a7b" d="M152.64879,126.51725h.00008a23.38985,23.38985,0,0,1,23.38985,23.38985v.00006a17.65977,17.65977,0,0,1-17.65977,17.65977h-5.73016a0,0,0,0,1,0,0V126.51725A0,0,0,0,1,152.64879,126.51725Z" transform="rotate(-180 164.344 147.042)"/><path fill="#343c4a" d="M302.95605 133.88672a3.48887 3.48887 0 0 1-1.32617-.2627 27.44481 27.44481 0 0 0-11.043-2.03759 27.16869 27.16869 0 0 0-9.66162 2.03759 3.50024 3.50024 0 1 1-2.65722-6.47656 34.20678 34.20678 0 0 1 26.01709 0 3.50059 3.50059 0 0 1-1.32911 6.73926zM291.27734 151.59375a3.49986 3.49986 0 0 1-3.5-3.5v-7.43311a3.5 3.5 0 0 1 7 0v7.43311A3.49985 3.49985 0 0 1 291.27734 151.59375zM233.22412 133.88672a3.48887 3.48887 0 0 1-1.32617-.2627 27.2099 27.2099 0 0 0-20.70508 0 3.50024 3.50024 0 0 1-2.65723-6.47656 34.208 34.208 0 0 1 26.01758 0 3.50059 3.50059 0 0 1-1.3291 6.73926zM221.54492 151.59375a3.49986 3.49986 0 0 1-3.5-3.5v-7.43311a3.5 3.5 0 0 1 7 0v7.43311A3.49985 3.49985 0 0 1 221.54492 151.59375z"/></svg>