<svg xmlns="http://www.w3.org/2000/svg" viewBox="0 0 32 32"><polygon fill="#ffb6c9" points="16 29 25.09 29 24.59 18.41 22.94 16.5 19.91 16 10 16.22 7.44 18.19 6.66 23.31 6.94 29 16 29"/><path fill="#ff2e5b" d="M16 14a6 6 0 0 0 4.8-9.6 1 1 0 1 0-1.6 1.2A4 4 0 1 1 16 4a1 1 0 0 0 0-2 6 6 0 0 0 0 12zM21 15H11a5 5 0 0 0-5 5v9a1 1 0 0 0 1 1h8a1 1 0 0 0 0-2H8V20a3 3 0 0 1 3-3H21a3 3 0 0 1 3 3v8H20V26h2a1 1 0 0 0 0-2H20V22a1 1 0 0 0-2 0v2H16a1 1 0 0 0 0 2h2v3a1 1 0 0 0 1 1h6a1 1 0 0 0 1-1V20A5 5 0 0 0 21 15z"/></svg>