<svg xmlns="http://www.w3.org/2000/svg" data-name="Layer 1" viewBox="0 0 32 32"><path fill="#57565c" d="M27,14.5a31,31,0,0,1-11,2,31.17,31.17,0,0,1-11-2,11.4,11.4,0,0,0,3.47-3.57,9.47,9.47,0,0,0,1.36-5C9.81,3,12.55.5,16,.5S22.21,3,22.21,5.93a9.76,9.76,0,0,0,1.32,4.91A11.5,11.5,0,0,0,27,14.5Z"/><path fill="#3c3b41" d="M23.53,10.84a9.76,9.76,0,0,1-1.32-4.91C22.21,3,19.48.5,16,.5l-.5,0c3.22.22,5.69,2.57,5.69,5.41a9.76,9.76,0,0,0,1.32,4.91,10.73,10.73,0,0,0,1.78,2.27,1.27,1.27,0,0,1-.51,2.13,31.64,31.64,0,0,1-8.46,1.25H16a31,31,0,0,0,11-2A11.5,11.5,0,0,1,23.53,10.84Z"/><path fill="#fdd8ae" d="M27.5,21V31.5H4.5V21A3,3,0,0,1,7,18.07l1-.18,1-.17,2-.35.87-.15.82-.14a1,1,0,0,0,.83-1V14.5h5v1.59a1,1,0,0,0,.83,1l.82.14.87.15,2,.35,1,.17,1,.18A3,3,0,0,1,27.5,21Z"/><path fill="#eb304a" d="M9 17.8v6.7a.5.5 0 0 1-1 0V17.89l1-.17A.22.22 0 0 1 9 17.8zM24 17.89V24.5a.5.5 0 0 1-1 0V17.8a.22.22 0 0 1 0-.08z"/><path fill="#ed4769" d="M24.14,28.43a7.35,7.35,0,0,0-.64,3.07H8.5a7.35,7.35,0,0,0-.64-3.07,4.49,4.49,0,0,1,.37-4.58c.93-1.11,2.91-1.4,4.27-1.35,1.67.06,2.9,1.66,3.5,2,.6-.34,1.83-1.94,3.5-2s3.83.33,4.62,1.9A4.67,4.67,0,0,1,24.14,28.43Z"/><path fill="#eb304a" d="M24.12,24.4c-.79-1.57-3-1.95-4.62-1.9l-.14,0c1.46.1,3.1.57,3.76,1.88a4.67,4.67,0,0,1,0,4,7.35,7.35,0,0,0-.64,3.07h1a7.35,7.35,0,0,1,.64-3.07A4.67,4.67,0,0,0,24.12,24.4Z"/><path fill="#fbbf7d" d="M18.5,14.5v1.31a1.94,1.94,0,0,1-.33.23L17,16.71a2,2,0,0,1-2,0L13.79,16l-.29-.18V14.5Z"/><path fill="#fdd8ae" d="M12.31,12.87l-.72-4.69a2.1,2.1,0,0,0,2.16.5,2,2,0,0,0,1.08-1,5.43,5.43,0,0,0,3.24,1.07,5.22,5.22,0,0,0,2.14-.49l-.6,4.59A3,3,0,0,1,18.17,15L17,15.71a2,2,0,0,1-2,0L13.79,15A3,3,0,0,1,12.31,12.87Z"/><path fill="#fbbf7d" d="M13.75 9.68a2 2 0 0 0 1.08-1 5.43 5.43 0 0 0 3.24 1.07 5.14 5.14 0 0 0 2-.43c.05-.35.09-.7.14-1.06a5.22 5.22 0 0 1-2.14.49 5.43 5.43 0 0 1-3.24-1.07 2 2 0 0 1-1.08 1 2.1 2.1 0 0 1-2.16-.5l.18 1.12A2.06 2.06 0 0 0 13.75 9.68zM21.05 17.82c0 1.66-2.22 2.95-5.05 2.95S11 19.48 11 17.82a.4.4 0 0 1 0-.15l.87-.15a.51.51 0 0 1 .1.3c0 .92 1.66 1.95 4.05 1.95s4.05-1 4.05-1.95a.51.51 0 0 1 .1-.3l.87.15A.4.4 0 0 1 21.05 17.82z"/><path fill="#fee27d" d="M21.05,17.52c0,1.66-2.22,2.95-5.05,2.95S11,19.18,11,17.52a.4.4,0,0,1,0-.15l.87-.15a.51.51,0,0,1,.1.3c0,.92,1.66,1.95,4.05,1.95s4.05-1,4.05-1.95a.51.51,0,0,1,.1-.3l.87.15A.4.4,0,0,1,21.05,17.52Z"/><circle cx="16" cy="20.77" r="1" fill="#fbbf7d"/><circle cx="16" cy="20.47" r="1" fill="#ed4769"/><circle cx="16" cy="20.47" r=".35" fill="#eb304a"/></svg>