<svg xmlns="http://www.w3.org/2000/svg" viewBox="0 0 48 48"><g data-name="Woman Doctor Asian"><path fill="#edb996" d="M33,13c0,6.59.26,8.42-.82,10.75-9.1-2.85-7.22-2.86-16.36,0C14.59,21.17,15,18.27,15,13c3.94-.89,9.8-3.35,12-7A10.27,10.27,0,0,0,33,13Z"/><path fill="#f6ccaf" d="M33,13c0,6.07.23,7.49-.82,9.75-5.26-1.65-7.69-2.93-11.34-1.57l-1.24.39A2,2,0,0,1,17,19.66V12.44c2.83-.9,7.89-2.93,10-6.44A10.27,10.27,0,0,0,33,13Z"/><path fill="#edb996" d="M15 13v6H14c-4 0-4-6 0-6zM34 19H33V13h1C38 13 38 19 34 19z"/><path fill="#f6ccaf" d="M37,15.5A3,3,0,0,1,34,18H33V13h1A3,3,0,0,1,37,15.5Z"/><path fill="#dad7e5" d="M32.18,23.75a9,9,0,0,1-16.36,0C24.63,21,23.33,20.8,32.18,23.75Z"/><path fill="#edebf2" d="M32,23.68a9,9,0,0,1-14.32-.5C24.69,21,23.47,21,32,23.68Z"/><path fill="#a87e6b" d="M19.68,27.89,11,25V16a3,3,0,0,0,3,3h1a10.33,10.33,0,0,0,.56,4.12A9,9,0,0,0,19.68,27.89Z"/><path fill="#a07765" d="M14,20c0,2.36.15,4.37,2,6.67,6.07,2,3.1,1.3,1.5-.43A9,9,0,0,1,15.22,22c-.76-3.4.63-3-1.22-3a3,3,0,0,1-3-3v3.22A3.79,3.79,0,0,0,14,20Z"/><path fill="#be927c" d="M37,16v9l-8.68,2.89a9,9,0,0,0,3.86-4.14A10.11,10.11,0,0,0,33,19h1A3,3,0,0,0,37,16Z"/><path fill="#a87e6b" d="M32.05,26.59c1.69-2,2-4.17,2-6.59,1.23,0,2,.09,3-.78V16a3,3,0,0,1-3,3c-1.86,0-.44-.37-1.25,3.12a8.93,8.93,0,0,1-4.43,5.77C32.33,26.56,32,26.7,32.05,26.59Z"/><path fill="#be927c" d="M37,16a3,3,0,0,0-3-3H33a10.27,10.27,0,0,1-6-7c-2.38,4-9.88,7-13,7a3,3,0,0,0-3,3V14C11,2.41,25.06-3.32,33.19,4.81,37,8.57,37,12.47,37,16Z"/><path fill="#edb996" d="M34,13H33a10.27,10.27,0,0,1-6-7c-3,5-12,7-12,7H14a3,3,0,0,0-3,3v1a3,3,0,0,1,3-3c2.7,0,8.31-2.32,11.07-4.75a2,2,0,0,1,3.05.49A9.78,9.78,0,0,0,33,14h1a3,3,0,0,1,3,3V16A3,3,0,0,0,34,13Z"/><path fill="#a87e6b" d="M25,1.05A13,13,0,0,0,11,14v2a3,3,0,0,1,2-2.83A13,13,0,0,1,25,1.05Z"/><path fill="#dad7e5" d="M19,30V47H4c.48-2.65.1-.56,2-11C19.35,29.86,7.14,35.46,19,30Z"/><path fill="#edebf2" d="M17,30.92V45H13.51A7.63,7.63,0,0,1,6,36C12.19,33.15-3.53,40.38,17,30.92Z"/><polygon fill="#6fabe6" points="29 40 29 47 19 47 19 40 24 35 29 40"/><path fill="#82bcf4" d="M29,41v4H28a7,7,0,0,1-6.93-6.07,4.15,4.15,0,0,1,5.86,0Z"/><path fill="#dad7e5" d="M44,47H29V30l13,6C43.92,46.55,43.52,44.34,44,47Z"/><path fill="#edebf2" d="M43.64,45H29V30c10,4.62,1.69.8,13,6Z"/><path fill="#5b9ad8" d="M29,30V40l-5-5A5,5,0,0,0,29,30Z"/><path fill="#5b9ad8" d="M29,30V40l-5-5A5,5,0,0,0,29,30Z"/><path fill="#5b9ad8" d="M29 30V40l-5-5A5 5 0 0 0 29 30zM24 35l-5 5V30A5 5 0 0 0 24 35z"/><path fill="#d1a586" d="M29,27.48c0,2.43.41,5.27-2.61,6.91A5,5,0,0,1,19,30c0-5-.75-1,5-1A8.94,8.94,0,0,0,29,27.48Z"/><path fill="#edb996" d="M25,30.5A1.57,1.57,0,0,1,27,32a4.93,4.93,0,0,1-.61,2.39A5,5,0,0,1,19,30.49,8.94,8.94,0,0,0,25,30.5Z"/><rect width="15" height="1" x="4" y="47" fill="#dad7e5"/><rect width="15" height="1" x="29" y="47" fill="#dad7e5"/><rect width="10" height="1" x="19" y="47" fill="#6fabe6"/><path fill="#231f20" d="M43,35.82c-.14-.79.26-.41-13.62-5.75-.48-.19-.36.33-.36-1.35,9-3,9-2.75,9-3.72V14A14,14,0,0,0,24,0C17,0,10,5.26,10,15c0,10.87-.24,10.64.68,11L19,28.72V30c-.3,0,.76-.37-13.36,5.06C4.91,35.35,5.17,35,3,46.82A1,1,0,0,0,4,48c1.15,0,.87-.17,2.88-11.27L11.35,35A8,8,0,0,0,11,38.14,4,4,0,0,0,8,42v1a1,1,0,0,0,1,1h1a1,1,0,0,0,0-2,2,2,0,0,1,4,0,1,1,0,0,0,0,2h1a1,1,0,0,0,1-1V42a4,4,0,0,0-3-3.86c0-4,1-4.15,5-5.68V47a1,1,0,0,0,2,0V40.41l4-4,4,4V47a1,1,0,0,0,2,0V32.46c2.9,1.11,5,1.55,5,4.72A3,3,0,0,0,33,40c0,4,6,4,6,0a3,3,0,0,0-2-2.82A6,6,0,0,0,36.65,35l4.47,1.72C43.12,47.74,42.85,48,44,48a1,1,0,0,0,1-1.18ZM21,31V29.54a10.06,10.06,0,0,0,6,0V31C27,35,21,35,21,31ZM14,14v4A2,2,0,0,1,14,14Zm20,4V14A2,2,0,0,1,34,18Zm-2.5,4.75c-8-3-7.6-2.78-15,0-.67-1.82-.5-2.62-.5-9,2-.55,7.52-2.27,10.66-5.69A11,11,0,0,0,32,13.63C32,20.79,32.11,21.09,31.5,22.75ZM17.42,24.54c7.1-2.67,6.43-2.53,13.16,0A8,8,0,0,1,17.42,24.54ZM34,20a3.91,3.91,0,0,0,2-.56v4.84C29.33,26.5,34,26,34,20ZM24,2A12,12,0,0,1,35.9,12.5,4,4,0,0,0,34,12c-2.58,0-5.45-3.45-6-6.2a1,1,0,0,0-1.84-.31C23.92,9.19,16.68,12,14,12a4,4,0,0,0-1.9.5A12,12,0,0,1,24,2ZM12,19.44A3.91,3.91,0,0,0,14,20c0,6,4.68,6.51-2,4.28ZM20,34c1.85,2.48,3.16.46,0,3.62Zm8,0v3.62C24.86,34.44,26.13,36.49,28,34Zm8,7a1,1,0,0,1,0-2A1,1,0,0,1,36,41Z"/><path fill="#231f20" d="M26 16c0 1.2 1.17 1 3 1a1 1 0 0 0 0-2C27.15 15 26 14.8 26 16zM21 15c-1.85 0-3-.2-3 1s1.17 1 3 1A1 1 0 0 0 21 15zM24 39a1 1 0 0 0 0 2A1 1 0 0 0 24 39zM24 43a1 1 0 0 0 0 2A1 1 0 0 0 24 43z"/></g></svg>